<?xml version="1.0" encoding="iso-8859-1"?>
<!-- Generator: Adobe Illustrator 19.0.0, SVG Export Plug-In . SVG Version: 6.00 Build 0)  -->
<svg version="1.1" id="Layer_1" xmlns="http://www.w3.org/2000/svg" xmlns:xlink="http://www.w3.org/1999/xlink" x="0px" y="0px"
	 viewBox="0 0 512 512" style="enable-background:new 0 0 512 512;" xml:space="preserve">
<path style="fill:#4C5870;" d="M450.541,122.919c-16.417,0-31.851-6.393-43.458-18.002c-23.963-23.962-23.963-62.953,0-86.916
	C418.692,6.393,434.124,0,450.541,0s31.849,6.393,43.458,18.001C505.607,29.608,512,45.043,512,61.459s-6.393,31.851-18.001,43.458
	C482.392,116.526,466.957,122.919,450.541,122.919z M450.541,23.704c-10.085,0-19.566,3.927-26.696,11.059
	c-14.721,14.721-14.721,38.674,0,53.394c7.131,7.131,16.613,11.059,26.696,11.059c10.084,0,19.566-3.928,26.696-11.059
	c7.132-7.131,11.059-16.613,11.059-26.697s-3.927-19.566-11.059-26.697C470.106,27.63,460.625,23.704,450.541,23.704z"/>
<path style="fill:#A2A9AF;" d="M439.196,72.804c-4.629-4.628-12.132-4.628-16.762,0l-54.476,54.476l16.762,16.762l54.476-54.476
	C443.826,84.936,443.826,77.432,439.196,72.804z"/>
<circle style="fill:#4C5870;" cx="230.767" cy="281.233" r="230.767"/>
<circle style="fill:#FFFFFF;" cx="230.767" cy="281.233" r="176.593"/>
<polygon style="fill:#EE3840;" points="230.335,150.519 190.449,281.665 270.222,281.665 "/>
<polygon style="fill:#269AF2;" points="190.449,281.665 230.335,412.811 270.222,281.665 "/>
<g>
</g>
<g>
</g>
<g>
</g>
<g>
</g>
<g>
</g>
<g>
</g>
<g>
</g>
<g>
</g>
<g>
</g>
<g>
</g>
<g>
</g>
<g>
</g>
<g>
</g>
<g>
</g>
<g>
</g>
</svg>
