<?xml version="1.0" encoding="iso-8859-1"?>
<!-- Generator: Adobe Illustrator 19.0.0, SVG Export Plug-In . SVG Version: 6.00 Build 0)  -->
<svg version="1.1" id="Layer_1" xmlns="http://www.w3.org/2000/svg" xmlns:xlink="http://www.w3.org/1999/xlink" x="0px" y="0px"
	 viewBox="0 0 488.143 488.143" style="enable-background:new 0 0 488.143 488.143;" xml:space="preserve">
<g transform="translate(0 -540.36)">
	<g>
		<g>
			<path d="M213.513,630.703c5.5,0,10-4.5,10-10v-43.5l43.5,50.1c2,2.2,4.8,3.4,7.6,3.4v0c1.2,0,2.4-0.2,3.4-0.6
				c3.9-1.5,6.5-5.2,6.5-9.4v-70.3c0-5.5-4.5-10-10-10s-10,4.5-10,10v43.5l-43.5-50.1c-2.7-3.1-7.1-4.3-11-2.8
				c-3.9,1.5-6.5,5.2-6.5,9.4v70.3C203.513,626.203,208.013,630.703,213.513,630.703z"/>
			<path d="M274.913,995.203c0-0.3-0.1-0.6-0.1-0.9c-2.3-13.8-13.7-24.5-28.3-26.6c-0.4-0.1-0.8-0.1-1.2-0.1
				c-0.4-0.1-0.9-0.1-1.4-0.1c-5,0-10.2-2.6-10.6-8.3c0-0.3,0-0.5-0.1-0.8c-0.7-4.3,1.7-9.6,7.5-10.9c0.3-0.1,0.6-0.1,0.8-0.2
				c4.9-1.5,10.8,1.3,13.3,6.4c2.5,4.9,8.5,6.9,13.4,4.5c4.9-2.5,6.9-8.5,4.5-13.4c-6.8-13.7-22.5-20.8-36.7-16.7
				c-15.2,3.5-24.9,17.5-22.7,33c1.3,15.3,13.9,26.3,30.2,26.5c5.8,0.8,10.3,4.7,11.3,9.7c0.2,5.1-2.9,9.4-7.6,10.4
				c-0.2,0.1-0.5,0.1-0.7,0.2c-5.6,1.7-11.6-0.3-14.6-5s-9.1-6-13.8-3.1c-4.7,3-6,9.1-3.1,13.8c6,9.4,16.5,14.9,27.5,14.9
				c3.2,0,6.4-0.5,9.5-1.4C266.613,1023.603,276.113,1010.303,274.913,995.203L274.913,995.203z"/>
			<path d="M478.113,814.903h-50.3v-20.5h30.5c5.5,0,10-4.5,10-10s-4.5-10-10-10h-30.5v-20.5h50.3c5.5,0,10-4.5,10-10s-4.5-10-10-10
				h-60.3c-5.5,0-10,4.5-10,10v81c0,5.5,4.5,10,10,10h60.3c5.5,0,10-4.5,10-10S483.613,814.903,478.113,814.903z"/>
			<path d="M92.913,734.003c-5.4-0.7-10.4,3.2-11.1,8.7l-6.7,54.5l-15.6-23c-1.9-2.8-5-4.4-8.3-4.4c-3.3,0-6.4,1.7-8.3,4.4
				l-15.8,23.3l-7.2-54.9c-0.7-5.5-5.7-9.3-11.2-8.6s-9.3,5.7-8.6,11.2l10.7,81c0.5,4.1,3.6,7.4,7.6,8.4c4.1,1,8.3-0.7,10.6-4.1
				l22.3-32.9l22.3,32.9c1.9,2.8,5,4.4,8.3,4.4v0c0.7,0,1.5-0.1,2.2-0.3c4.1-1,7.1-4.4,7.6-8.5l9.9-81
				C102.313,739.703,98.413,734.703,92.913,734.003z"/>
			<path d="M322.213,746.703c-3.9-3.9-10.2-3.9-14.1,0c-3.9,3.9-3.9,10.2,0,14.1l13.5,13.5h-67.5v-67.5l13.5,13.5
				c2,2,4.5,2.9,7.1,2.9c2.6,0,5.1-1,7.1-2.9c3.9-3.9,3.9-10.2,0-14.1l-30.5-30.6c-1.9-1.9-4.4-2.9-7.1-2.9s-5.2,1.1-7.1,2.9
				l-30.5,30.6c-3.9,3.9-3.9,10.2,0,14.1c3.9,3.9,10.2,3.9,14.1,0l13.5-13.5v67.5h-67.4l13.5-13.5c3.9-3.9,3.9-10.2,0-14.1
				c-3.9-3.9-10.2-3.9-14.1,0l-30.5,30.6c-3.9,3.9-3.9,10.2,0,14.1l30.5,30.6c2,2,4.5,2.9,7.1,2.9c2.6,0,5.1-1,7.1-2.9
				c3.9-3.9,3.9-10.2,0-14.1l-13.5-13.5h67.4v67.5l-13.5-13.5c-3.9-3.9-10.2-3.9-14.1,0c-3.9,3.9-3.9,10.2,0,14.1l30.5,30.6
				c1.9,1.9,4.4,2.9,7.1,2.9s5.2-1.1,7.1-2.9l30.5-30.6c3.9-3.9,3.9-10.2,0-14.1c-3.9-3.9-10.2-3.9-14.1,0l-13.5,13.5v-67.5h67.4
				l-13.5,13.5c-3.9,3.9-3.9,10.2,0,14.1c2,2,4.5,2.9,7.1,2.9c2.6,0,5.1-1,7.1-2.9l30.5-30.6c3.7-3.8,3.7-10.2-0.2-14.1
				L322.213,746.703z"/>
		</g>
	</g>
</g>
<g>
</g>
<g>
</g>
<g>
</g>
<g>
</g>
<g>
</g>
<g>
</g>
<g>
</g>
<g>
</g>
<g>
</g>
<g>
</g>
<g>
</g>
<g>
</g>
<g>
</g>
<g>
</g>
<g>
</g>
</svg>
